<svg width="16" height="16" viewBox="0 0 16 16" fill="none" xmlns="http://www.w3.org/2000/svg">
<path d="M10.77 7.30001H10.772C11.817 7.69301 13.251 8.23001 13.251 9.75001C13.249 10.102 13.1727 10.4496 13.027 10.77C12.8845 11.091 12.6759 11.3784 12.4149 11.6134C12.1538 11.8485 11.8462 12.0258 11.512 12.134C11.1789 12.2446 10.8263 12.2837 10.477 12.249C10.4059 12.2568 10.3345 12.2608 10.263 12.261C9.64411 12.2589 9.048 12.0273 8.59001 11.611C8.32852 11.3766 8.11889 11.0902 7.97458 10.7701C7.83027 10.4499 7.75446 10.1032 7.75201 9.75201C7.75201 9.55001 7.83001 9.36201 7.97201 9.22001C8.11508 9.08425 8.30479 9.00858 8.50201 9.00858C8.69924 9.00858 8.88894 9.08425 9.03201 9.22001C9.1023 9.28917 9.15807 9.37168 9.19602 9.4627C9.23397 9.55371 9.25335 9.6514 9.25301 9.75001C9.25301 10.702 10.294 10.75 10.503 10.75C10.712 10.75 11.753 10.702 11.753 9.75001C11.753 9.33701 11.306 9.10201 10.239 8.70201H10.236C9.19001 8.30701 7.75301 7.77001 7.75301 6.25001C7.75635 5.89201 7.83101 5.55201 7.97701 5.23001C8.12026 4.90933 8.32947 4.62243 8.59101 4.38801C8.85127 4.15353 9.15789 3.97637 9.49101 3.86801C10.1506 3.66888 10.8544 3.66888 11.514 3.86801C12.017 4.03219 12.4555 4.35051 12.7675 4.77787C13.0794 5.20522 13.2489 5.71992 13.252 6.24901C13.252 6.45001 13.174 6.63901 13.032 6.78001C12.8889 6.91605 12.699 6.99191 12.5015 6.99191C12.304 6.99191 12.1141 6.91605 11.971 6.78001C11.9009 6.71076 11.8453 6.62821 11.8075 6.5372C11.7698 6.44619 11.7505 6.34855 11.751 6.25001C11.751 5.29801 10.71 5.25001 10.501 5.25001C10.292 5.25001 9.25101 5.29801 9.25101 6.25001C9.25101 6.66301 9.69801 6.89801 10.765 7.29801L10.77 7.30001ZM5.75101 4.50001C5.75101 4.30001 5.82901 4.11201 5.97101 3.97001C6.11408 3.83425 6.30379 3.75858 6.50101 3.75858C6.69824 3.75858 6.88794 3.83425 7.03101 3.97001C7.17301 4.11101 7.25101 4.30001 7.25101 4.50001V9.50001C7.25119 10.044 7.09001 10.5759 6.78784 11.0283C6.48568 11.4807 6.05612 11.8333 5.55352 12.0415C5.05091 12.2498 4.49783 12.3042 3.96426 12.198C3.43069 12.0918 2.94061 11.8298 2.55601 11.445C2.29961 11.1903 2.09633 10.8872 1.95797 10.5533C1.81961 10.2194 1.74893 9.86142 1.75001 9.50001V9.00001C1.75001 8.80001 1.82801 8.61201 1.97001 8.47001C2.11313 8.33396 2.30305 8.2581 2.50051 8.2581C2.69798 8.2581 2.88789 8.33396 3.03101 8.47001C3.17301 8.61101 3.25101 8.80001 3.25101 9.00001V9.50001C3.25101 9.83001 3.38501 10.152 3.61701 10.384C4.08201 10.849 4.92001 10.849 5.38501 10.384C5.61701 10.151 5.75101 9.82901 5.75101 9.50001V4.50001Z" fill="black"/>
</svg>
