<svg width="24" height="24" viewBox="0 0 24 24" fill="none" xmlns="http://www.w3.org/2000/svg">
<path d="M12.887 1.36205C12.6181 1.20396 12.3119 1.12061 12 1.12061C11.6881 1.12061 11.3819 1.20396 11.113 1.36205L3.363 5.92005C3.10016 6.0746 2.88226 6.29514 2.73088 6.55982C2.57951 6.8245 2.49992 7.12414 2.5 7.42905V16.5711C2.5 17.1911 2.828 17.7651 3.363 18.0791L5.986 19.6221C7.319 20.4081 9 19.4461 9 17.9001V7.74705H7V17.8991L4.5 16.4281V7.57205L12 3.16005L19.5 7.57205V16.4281L12 20.8401L10.232 19.8001L9.218 21.5231L11.113 22.6381C11.3819 22.7961 11.6881 22.8795 12 22.8795C12.3119 22.8795 12.6181 22.7961 12.887 22.6381L20.637 18.0791C20.8997 17.9246 21.1175 17.7042 21.2689 17.4397C21.4202 17.1752 21.4999 16.8758 21.5 16.5711V7.42905C21.4999 7.12431 21.4202 6.82488 21.2689 6.56039C21.1175 6.29589 20.8997 6.07551 20.637 5.92105L12.887 1.36205ZM14 7.50005C12.637 7.50005 11.671 7.85105 11.05 8.47005C10.5811 8.93646 10.3161 9.56967 10.313 10.2311C10.313 10.7861 10.47 11.2891 10.795 11.7051C11.108 12.1051 11.52 12.3541 11.915 12.5151C12.635 12.8121 13.535 12.9091 14.259 12.9861L14.346 12.9961C15.177 13.0861 15.8 13.1631 16.226 13.3411C16.419 13.4211 16.498 13.4951 16.531 13.5381C16.552 13.5661 16.593 13.6281 16.593 13.7981C16.593 14.0621 16.503 14.2321 16.22 14.3931C15.873 14.5901 15.26 14.7401 14.337 14.7401C13.422 14.7401 12.784 14.5701 12.419 14.3181C12.136 14.1221 11.927 13.8211 11.982 13.1681L9.989 13.0011C9.881 14.2901 10.348 15.3171 11.281 15.9631C12.132 16.5531 13.251 16.7401 14.337 16.7401C15.414 16.7401 16.429 16.5751 17.21 16.1301C18.056 15.6501 18.593 14.8481 18.593 13.7981C18.593 13.2411 18.438 12.7371 18.116 12.3181C17.806 11.9141 17.394 11.6621 16.998 11.4961C16.27 11.1911 15.358 11.0931 14.63 11.0151L14.56 11.0071C13.727 10.9171 13.104 10.8421 12.675 10.6661C12.481 10.5861 12.402 10.5141 12.372 10.4741C12.352 10.4501 12.313 10.3941 12.313 10.2311C12.313 10.1541 12.336 10.0121 12.463 9.88605C12.585 9.76405 12.962 9.50005 14 9.50005C14.99 9.50005 15.567 9.60505 15.897 9.80005C16.112 9.92805 16.345 10.1631 16.377 10.9331L18.375 10.8531C18.325 9.60705 17.869 8.64505 16.917 8.08105C16.08 7.58305 15.01 7.50005 14 7.50005Z" fill="black"/>
</svg>
