<svg width="15" height="15" viewBox="0 0 15 15" fill="none" xmlns="http://www.w3.org/2000/svg">
<g clip-path="url(#clip0_650_71)">
<path fill-rule="evenodd" clip-rule="evenodd" d="M5.315 1.837C4.915 1.721 4.62 1.752 4.405 1.869C4.189 1.985 4.001 2.216 3.879 2.614C3.757 3.015 3.716 3.55 3.775 4.196C3.785 4.301 3.797 4.408 3.812 4.517C4.36364 4.37853 4.9234 4.27466 5.488 4.206C5.8737 3.66136 6.29991 3.14657 6.763 2.666C6.74111 2.6482 6.7191 2.63053 6.697 2.613C6.189 2.211 5.717 1.953 5.315 1.837ZM7.5 1.977C7.44 1.927 7.379 1.877 7.318 1.829C6.746 1.377 6.16 1.04 5.594 0.875999C5.024 0.710999 4.441 0.710999 3.928 0.989999C3.415 1.268 3.095 1.757 2.923 2.324C2.751 2.888 2.713 3.562 2.779 4.289C2.795 4.459 2.816 4.633 2.844 4.812C2.674 4.872 2.51 4.937 2.354 5.004C1.683 5.291 1.108 5.646 0.694 6.066C0.278 6.487 0 7 0 7.584C0 8.167 0.278 8.681 0.694 9.103C1.108 9.523 1.683 9.877 2.354 10.165C2.51 10.232 2.674 10.296 2.844 10.357C2.81704 10.5306 2.79536 10.705 2.779 10.88C2.713 11.606 2.751 12.28 2.923 12.845C3.095 13.412 3.415 13.901 3.928 14.178C4.441 14.456 5.025 14.457 5.594 14.292C6.16 14.127 6.746 13.792 7.318 13.339L7.5 13.19C7.56 13.241 7.621 13.29 7.682 13.339C8.254 13.791 8.84 14.127 9.406 14.292C9.975 14.457 10.559 14.456 11.072 14.178C11.585 13.901 11.905 13.412 12.077 12.845C12.249 12.281 12.287 11.606 12.221 10.88C12.2047 10.705 12.183 10.5306 12.156 10.357C12.3213 10.2983 12.4848 10.2342 12.646 10.165C13.317 9.877 13.892 9.522 14.306 9.103C14.722 8.681 15 8.167 15 7.583C15 7.001 14.722 6.487 14.306 6.065C13.892 5.645 13.317 5.29 12.646 5.003C12.4846 4.93408 12.3212 4.87005 12.156 4.811C12.183 4.632 12.205 4.458 12.221 4.288C12.287 3.561 12.249 2.888 12.077 2.323C11.905 1.756 11.585 1.267 11.072 0.988999C10.56 0.710999 9.975 0.710999 9.406 0.875999C8.84 1.04 8.254 1.376 7.682 1.829L7.5 1.977ZM7.5 3.342C7.275 3.572 7.05 3.825 6.828 4.097C7.27582 4.07927 7.72418 4.07927 8.172 4.097C7.95929 3.83551 7.73507 3.58359 7.5 3.342ZM9.512 4.206C9.102 3.632 8.672 3.114 8.237 2.666L8.302 2.613C8.812 2.211 9.282 1.953 9.685 1.837C10.084 1.721 10.38 1.752 10.595 1.869C10.811 1.985 10.999 2.216 11.12 2.614C11.242 3.015 11.284 3.55 11.225 4.196C11.215 4.301 11.203 4.408 11.188 4.516C10.6363 4.37787 10.0766 4.27433 9.512 4.206ZM8.949 5.15C7.98509 5.06024 7.01492 5.06024 6.051 5.15C5.53605 5.92027 5.09063 6.73481 4.72 7.584C5.09068 8.43265 5.53575 9.24683 6.05 10.017C7.01458 10.1068 7.98542 10.1068 8.95 10.017C9.46454 9.247 9.90962 8.4328 10.28 7.584C9.90939 6.735 9.46331 5.92048 8.949 5.15ZM10.774 6.288C10.6085 5.96385 10.4327 5.64502 10.247 5.332C10.507 5.382 10.758 5.438 10.999 5.5C10.936 5.756 10.861 6.02 10.774 6.288ZM10.774 8.879C10.6087 9.20362 10.433 9.52278 10.247 9.836C10.507 9.786 10.758 9.73 10.999 9.667C10.9332 9.40178 10.8582 9.13896 10.774 8.879ZM11.954 9.366C11.7986 8.75935 11.6022 8.16397 11.366 7.584C11.612 6.974 11.809 6.375 11.954 5.802C12.057 5.84 12.157 5.881 12.254 5.922C12.85 6.178 13.301 6.469 13.595 6.767C13.887 7.063 14.001 7.339 14.001 7.584C14.001 7.829 13.887 8.104 13.595 8.4C13.301 8.699 12.85 8.99 12.254 9.246C12.1549 9.28816 12.0549 9.32817 11.954 9.366ZM11.189 10.651C10.6374 10.7897 10.0776 10.8936 9.513 10.962C9.103 11.536 8.673 12.053 8.238 12.502L8.304 12.554C8.812 12.957 9.284 13.214 9.686 13.331C10.085 13.447 10.381 13.416 10.596 13.299C10.812 13.182 11 12.951 11.121 12.553C11.244 12.153 11.285 11.617 11.226 10.971C11.216 10.8641 11.2036 10.7574 11.189 10.651ZM7.5 11.826C7.725 11.596 7.95 11.343 8.172 11.071C7.72418 11.0888 7.27582 11.0888 6.828 11.071C7.05 11.343 7.275 11.595 7.5 11.826ZM4.754 9.836C4.56811 9.52274 4.39235 9.20357 4.227 8.879C4.14 9.149 4.065 9.411 4.002 9.667C4.242 9.73 4.494 9.786 4.754 9.836ZM3.812 10.651C4.3636 10.7897 4.92337 10.8936 5.488 10.962C5.898 11.536 6.327 12.053 6.763 12.502C6.74111 12.5195 6.71911 12.5368 6.697 12.554C6.189 12.957 5.717 13.214 5.315 13.331C4.915 13.447 4.62 13.416 4.404 13.299C4.188 13.182 4.001 12.951 3.879 12.553C3.757 12.153 3.716 11.617 3.775 10.971C3.78503 10.8641 3.79737 10.7574 3.812 10.651ZM3.047 9.366C3.192 8.792 3.388 8.194 3.635 7.584C3.39881 7.00402 3.20236 6.40865 3.047 5.802C2.94625 5.8401 2.84623 5.88011 2.747 5.922C2.151 6.178 1.7 6.469 1.406 6.767C1.114 7.063 1 7.339 1 7.584C1 7.829 1.114 8.104 1.406 8.4C1.7 8.699 2.151 8.99 2.747 9.246C2.844 9.287 2.944 9.327 3.047 9.366ZM4.002 5.501C4.065 5.756 4.14 6.02 4.227 6.288C4.39246 5.96381 4.56821 5.64498 4.754 5.332C4.494 5.382 4.243 5.438 4.002 5.501ZM6 7.584C6 7.18617 6.15804 6.80464 6.43934 6.52334C6.72064 6.24203 7.10218 6.084 7.5 6.084C7.89782 6.084 8.27936 6.24203 8.56066 6.52334C8.84196 6.80464 9 7.18617 9 7.584C9 7.98182 8.84196 8.36335 8.56066 8.64466C8.27936 8.92596 7.89782 9.084 7.5 9.084C7.10218 9.084 6.72064 8.92596 6.43934 8.64466C6.15804 8.36335 6 7.98182 6 7.584ZM7.5 7.084C7.36739 7.084 7.24021 7.13668 7.14645 7.23045C7.05268 7.32421 7 7.45139 7 7.584C7 7.71661 7.05268 7.84378 7.14645 7.93755C7.24021 8.03132 7.36739 8.084 7.5 8.084C7.63261 8.084 7.75979 8.03132 7.85355 7.93755C7.94732 7.84378 8 7.71661 8 7.584C8 7.45139 7.94732 7.32421 7.85355 7.23045C7.75979 7.13668 7.63261 7.084 7.5 7.084Z" fill="black"/>
</g>
<defs>
<clipPath id="clip0_650_71">
<rect width="15" height="15" fill="white"/>
</clipPath>
</defs>
</svg>
