<svg width="15" height="15" viewBox="0 0 15 15" fill="none" xmlns="http://www.w3.org/2000/svg">
<g clip-path="url(#clip0_650_77)">
<path d="M7.50019 2.5C6.47419 2.5 5.59219 2.777 4.90019 3.37C4.21219 3.96 3.76319 4.817 3.51319 5.886C3.48666 5.99922 3.50042 6.11815 3.5521 6.22232C3.60378 6.32649 3.69016 6.40939 3.79636 6.45675C3.90257 6.50411 4.02196 6.51297 4.134 6.4818C4.24603 6.45064 4.3437 6.3814 4.41019 6.286C4.72619 5.834 5.04219 5.563 5.34619 5.423C5.64019 5.288 5.95719 5.261 6.32119 5.358C6.68719 5.456 6.97119 5.744 7.41619 6.228L7.43119 6.244C7.76719 6.609 8.17619 7.054 8.73619 7.4C9.31819 7.759 10.0412 8 11.0002 8C12.0262 8 12.9082 7.723 13.6002 7.13C14.2882 6.54 14.7382 5.683 14.9872 4.614C15.0137 4.50078 15 4.38185 14.9483 4.27768C14.8966 4.17351 14.8102 4.09061 14.704 4.04325C14.5978 3.99589 14.4784 3.98703 14.3664 4.0182C14.2544 4.04936 14.1567 4.1186 14.0902 4.214C13.7742 4.666 13.4582 4.937 13.1542 5.077C12.8602 5.212 12.5432 5.239 12.1792 5.142C11.8132 5.044 11.5292 4.756 11.0842 4.272L11.0692 4.256C10.7332 3.891 10.3242 3.446 9.76419 3.1C9.18219 2.741 8.45919 2.5 7.50019 2.5ZM4.00019 7C2.97419 7 2.09219 7.277 1.40019 7.87C0.712192 8.46 0.263192 9.317 0.0131916 10.386C-0.0133432 10.4992 0.000414953 10.6181 0.0520986 10.7223C0.103782 10.8265 0.190159 10.9094 0.296365 10.9567C0.40257 11.0041 0.521963 11.013 0.633996 10.9818C0.746029 10.9506 0.843697 10.8814 0.910192 10.786C1.22619 10.334 1.54219 10.063 1.84619 9.923C2.14019 9.788 2.45719 9.761 2.82119 9.858C3.18719 9.956 3.47119 10.244 3.91619 10.728L3.93119 10.744C4.26719 11.109 4.67619 11.554 5.23619 11.9C5.81819 12.259 6.54119 12.5 7.50019 12.5C8.52619 12.5 9.40819 12.223 10.1002 11.63C10.7882 11.04 11.2382 10.183 11.4872 9.114C11.5137 9.00078 11.5 8.88185 11.4483 8.77768C11.3966 8.67351 11.3102 8.59062 11.204 8.54325C11.0978 8.49589 10.9784 8.48703 10.8664 8.5182C10.7544 8.54936 10.6567 8.6186 10.5902 8.714C10.2742 9.166 9.95819 9.437 9.65419 9.577C9.36019 9.712 9.04319 9.739 8.67919 9.642C8.31319 9.544 8.02919 9.256 7.58419 8.772L7.56919 8.756C7.23419 8.391 6.82419 7.946 6.26419 7.6C5.68219 7.24 4.95919 7 4.00019 7Z" fill="black"/>
</g>
<defs>
<clipPath id="clip0_650_77">
<rect width="15" height="15" fill="white"/>
</clipPath>
</defs>
</svg>
